<?xml version="1.0" encoding="utf-8"?>
<!-- Generator: Adobe Illustrator 21.1.0, SVG Export Plug-In . SVG Version: 6.00 Build 0)  -->
<svg version="1.1" id="Layer_1" xmlns="http://www.w3.org/2000/svg" xmlns:xlink="http://www.w3.org/1999/xlink" x="0px" y="0px"
	 viewBox="0 0 294.7 173.8" style="enable-background:new 0 0 294.7 173.8;" xml:space="preserve">
<style type="text/css">
	.st0{fill:#FFFFFF;}
	.st1{fill:#6CB33F;}
</style>
<rect x="12.5" y="10" class="st0" width="275.2" height="153.2"/>
<g>
	<path class="st1" d="M138.6,52c0,5.6,4,10,9.1,10s9.1-4.4,9.1-10s-4-10-9.1-10S138.6,46.4,138.6,52z"/>
	<path class="st1" d="M59.2,62c5.1,0,9.1-4.4,9.1-10s-4-10-9.1-10s-9.1,4.4-9.1,10C50.1,57.6,54.1,62,59.2,62z"/>
	<path class="st1" d="M97.8,82.2c0-2.1-1.4-3.4-3.9-3.4h-4.6v7h4.3C96.4,85.8,97.8,84.6,97.8,82.2z"/>
	<polygon class="st1" points="62.7,89.1 69.6,89.1 66.3,78.5 	"/>
	<path class="st1" d="M183.6,82.2c0-2.1-1.4-3.4-3.9-3.4h-4.6v7h4.3C182.2,85.8,183.6,84.6,183.6,82.2z"/>
	<polygon class="st1" points="92.7,125.7 99.6,125.7 96.2,115 	"/>
	<path class="st1" d="M126.6,51.9c0-6.2-3.3-9.6-9.4-9.6h-4.5v19.5h4.5C123.4,61.7,126.6,58.4,126.6,51.9z"/>
	<path class="st1" d="M219,44.9c0.2,0.8,2.8,3.1,3.7,1C220.7,46.6,220.3,42.5,219,44.9z"/>
	<path class="st1" d="M294.3,92.4c-0.1-0.7-0.6-0.8-0.7-1.3c-0.4-2.2,1.4-2.6,0.7-4.7c-1.4-1.3-6.1-1.5-4.1-4.1
		c0.2-1.7,1.2,0.9,2.7,0c0.3,1.9,2.1,0,1.4-1.4c-0.1-14.7,0.2-34.4,0-49.4c-0.1-5.9,0-11.8-1.4-15.6c-0.1-0.3-1.2-1-1.4-1.4
		c-0.5-0.9-0.1-1.8-0.7-2.7c-0.1-0.2-0.5-0.4-0.7-0.7c-0.9-1.4-5.8-6.7-6.8-6.8c-0.8,0-0.3-0.4-0.7-0.7c-1.6-1-3-1.4-5.4-2
		c-2.7-0.7-4.6-1.2-6.8-1.4c-6.8-0.4-13.4,0-20.3,0c-61.6,0-123.9,0-183.5,0c0.5,0.9,1.3,1.5,1.3,4.2c0,0-0.4,0.2-0.4,0.7
		c0.1,1.1-0.8,1.6-0.5,3.5c-0.4-0.3-0.8-0.6-1.5-0.5c-0.2,0-0.1-2.1-0.2-2.2c-0.4-1-0.7-0.6-1.1-1.4c-0.2-0.4,0.1-0.9,0-1.2
		C64.3,3,64.3,2.5,64,1.9c-0.4-0.7-1.2-0.4-1.2-1.6c-2.5,0-5,0-7.5,0c-12.2,0-26.6-1-35.2,0.7c-2.1,0.4-3.7,1.3-4.7,1.4
		c-1.2,0.1-1.7,1.3-2.7,1.4c-0.8,0-0.3,0.5-0.7,0.7C9.2,6,7.8,7.4,5.9,9.8c-1.1,1.4-2.6,2.8-2.7,4.1c0,0.7-0.6,0.4-0.7,0.7
		c-0.4,1.1-0.4,2.8-0.7,4.1c0,0-0.6,0-0.7,0c-0.5,0.4,0.1,3.7,0,4.1c-1,8.4-1.6,21.2-0.6,30.3c0.1,0.9,0.6,1.5,0.7,2
		c0.1,2.1-0.7,3.3-0.7,4.1c0,1.3,0.6,2.9,0.7,4.1c0.3,3.8-0.5,6.2-0.7,8.8c-0.4,5.5,0,9.5,0,14.9c0,3.7-0.8,13,0.7,14.2
		c0.5,0.4-0.7,0.8-0.7,0.7c-0.1,0.9,0,1.8,0,2.7c0,12-0.4,26.4,0,38c0.9-0.5,2.1,0.6,3.6-0.5c0,0.7,0.1,1.5,0.7,2.3
		c0.2,0.3-1.8,1-1.9,1.1c-0.6,0.9,0,1.3-0.4,2.2c-0.2,0.5-1,0.1-1.1,0.4c-0.1,0.1-0.1,0.2-0.2,0.2c0,0.3,0,0.6,0,0.9
		c-0.1,0.5-0.7,0.6-0.7,0.7c-0.1,0.6,0.7,0.6,0.7,0.7c0.2,1.7-0.3,3.2,0,4.7c0,0,0.6,0.2,0.7,0.7c0.2,0.9,0.5,1.4,0.7,2
		c0.1,0.4-0.2,1,0,1.4c0.1,0.3,1.1,1,1.3,1.4c0.9,1.4,1.3,2.5,2,3.4c1.5,1.8,2.5,2.8,4.1,4.1c0.4,0.4,0.9,1,1.4,1.4
		c1.3,0.9,4.6,1.7,5.4,2.7c0.1,0.2,1.1-0.1,1.4,0c2.3,0.9,6.2,1.2,9.5,1.3c5.1,0.3,11,0,16.9,0c71.2,0,134.5,0,203.1,0
		c12.5,0,25.2,1,32.5-2c0.3-0.1,1-1.1,1.4-1.4c0.3-0.2,1,0.2,1.4,0c0.2-0.1,0.4-1.2,0.7-1.4c0.6-0.4,1.5-0.3,2-0.7
		c0.6-0.4,0.8-1.5,1.4-2c1-1,2-1.5,2.7-2c0.2-0.2-0.2-1.1,0-1.4c0.8-1.1,2-1.5,2-2.7c0-0.7,0.6-0.4,0.7-0.7c1.8-4.3,1.9-9.9,2-16.2
		c0.1-5.6,0-12,0-18.3C294.3,114.3,295.1,101.8,294.3,92.4z M261.2,59.9c0-0.1,3.2,0.8,3.4,0.9c1.5,0.9,1.2,1.2,1.2,3
		c-0.8-0.4-1.9-0.4-2.7-0.1c-0.1,0.1-2.1,1.3-1.6,1.5c-0.5-0.2-1.2-0.6-1.7-0.6C259.9,63,260.9,61.5,261.2,59.9z M262.5,68
		c0.2,1.8-0.2,2.9-2,2.7c-0.4-0.5-0.7-1.1-0.7-2C260.4,68.1,261.3,67.9,262.5,68z M246.9,53.1c1.2-0.4,1.7-1.8,4.7-1.4
		c0,0,0.2,0.6,0.7,0.7c1.1,0.1,1.5,1.4,3.4,1.4c-0.4,0.5-0.7,1.1-0.7,2c0,0.3-2.1-0.2-2.2-0.1c-1,0.3-0.7,1-1.5,1.4
		c-0.4,0.2-0.9-0.4-1.1-0.2c-0.4,0.1-0.9,0.1-1.6,0.5c-0.8,0.4-0.5,1.7-1.8,1.4c-1.7-0.4-0.7-2.3,0.1-3.1c-0.8-0.7-2-0.7-2.7-1.5
		c0.9-0.3,0.7-0.8,0.7-1.6C245.4,52.6,246.1,53.4,246.9,53.1z M244.9,40.2c-0.9,1.8-0.2,5.2-3.4,4.7c-1.3-1.3-0.1-1.7,0-3.4
		c0-0.7-0.8-0.5-1.4-0.7C241.2,38.9,242.5,39.9,244.9,40.2z M212.8,21.8c-0.9,7.5,8,6.2,11.5,9.8c-2.9-0.1-8.5,2.3-11.3-1.5
		c-0.8,0.5-0.1,5.8,1.1,6.9c-3.4-2.1-8.2,1.4-10.2,5.4c-3.4-4.5,5.6-6.5,5.3-12.6c-0.9-3.5-3.7-5.3-3.2-10.1
		c-2.8-2.8-5.6-5.5-9.4-7.4C203.4,11.5,206.8,19.7,212.8,21.8z M208.3,60.5c2,0,1.1,5.1-1.4,4.7c-0.1-0.5-0.8-0.7-0.7-1.4
		c0-0.1,0.5-1.8,0.7-2C207.2,61.5,209,61.8,208.3,60.5z M162.5,61.7h3.8V42.2h-3.8v-3.8h9.5l0.1,0.1l11.1,20V42.2h-3.7v-3.8H191v3.8
		h-3.9v23.6h-4.6l-0.1-0.1l-12.2-22.1v18.1h3.8v3.8h-11.5V61.7z M178.5,98.3v3.8h-11.6v-3.8h3.7V78.8h-3.7V75h12.6
		c5.6,0,8.7,2.6,8.7,7.2c0,3.4-1.9,5.9-5.4,6.8l4.5,9.3h3.4v3.8h-6.2l-6-12.5h-3.4v8.6L178.5,98.3L178.5,98.3z M149.9,78.8v7.4h9.9
		V90h-9.9v8.2h10.8v-4.9h3.8v8.7h-22.6v-3.8h3.5V78.8h-3.5V75h22.6v8.5h-3.8v-4.7H149.9z M161.7,52c0,8.1-5.9,14-14,14
		c-8.3,0-14-5.8-14-14c0-8.1,5.9-14,14-14S161.7,43.9,161.7,52z M139.3,98.3v3.8H129v-3.8h2.9V79.7l-8.7,22.7H122l-8.6-22.7v18.6
		h2.9v3.8h-9.9v-3.8h3.3V78.8h-3.3V75h9.6l6.8,17.8l6.9-17.8h9.7v3.8h-3.2v19.5H139.3z M148.1,32.1c0-0.5,8.1,4.2,2.8,3.8
		c-0.9-0.1-1.6-1.3-2.6-1.2c-0.2,0-2.4,0.9-1.6,1.4c-0.5-0.4-1.1-0.7-2-0.7C144.3,31.7,148.3,36.1,148.1,32.1z M133.9,14.5
		c0.7,0,1.4,0,2,0c1.3,1.7-2.3,4,2,4.1c-0.4,0.5-0.7,1.1-0.7,2c-2.5,0.4-2.6-1.5-4.7-1.4C132.1,16.8,134,16.7,133.9,14.5z
		 M104.5,61.7h3.6V42.2h-3.6v-3.8h12.8c8.7,0,13.8,5,13.8,13.3c0,9.1-4.9,13.8-14.2,13.8h-12.4C104.5,65.5,104.5,61.7,104.5,61.7z
		 M74.9,61.7h3.8V42.2h-3.8v-3.8h9.5l11.2,20.2V42.2h-3.7v-3.8h11.5v3.8h-3.9v23.6h-4.6L82.5,43.7v18.1h3.8v3.8H74.9V61.7z
		 M77.3,98.3h3.1v3.8h-11v-3.8h3.2l-1.8-5.5h-9.2l-1.9,5.5h3.2v3.8h-11v-3.8h3.3l7.1-19.8h-3V75h14.1v3.5h-3L77.3,98.3z M59.2,38
		c8.1,0,14,5.9,14,14s-5.9,14-14,14c-8.3,0-14-5.8-14-14C45.2,43.9,51.1,38,59.2,38z M22.3,65.6v-3.8h3.5V42.2h-3.5v-3.8h11.4v3.8
		h-3.4v19.5h7.8v-9.1h4.2v12.9L22.3,65.6L22.3,65.6z M45,102.1H33.6v-3.8H37V78.8h-3.4V75h21.2v8.5H51v-4.7h-9.5v7.4h8.6V90h-8.6
		v8.3H45V102.1z M80.6,115.4h-3.2v19.5h3.2v3.8H70.3v-3.8h2.9v-18.6L64.4,139h-1.1l-8.6-22.7v18.6h2.9v3.8h-9.9v-3.8H51v-19.5h-3.3
		v-3.8h9.6l6.8,17.8l6.9-17.8h9.7v3.8H80.6z M81.1,98.3h3.7V78.8h-3.7V75h12.6c5.6,0,8.7,2.6,8.7,7.2c0,3.4-1.9,5.9-5.4,6.8l4.5,9.3
		h3.4v3.8h-6.2l-6-12.5h-3.4v8.6h3.5v3.8H81.1V98.3z M110.3,138.7h-11v-3.8h3.2l-1.8-5.5h-9.2l-1.9,5.5h3.2v3.8h-11v-3.8H85
		l7.1-19.8h-3v-3.5h14.1v3.5h-3l7,19.8h3.1C110.3,134.9,110.3,138.7,110.3,138.7z M134.8,138.7h-6.2l-6-12.5h-3.4v8.6h3.5v3.8H111
		v-3.8h3.7v-19.5H111v-3.8h12.6c5.6,0,8.7,2.6,8.7,7.2c0,3.4-1.9,5.9-5.4,6.8l4.5,9.3h3.4L134.8,138.7L134.8,138.7z M160.3,138.7
		H149v-3.8h2.6l-7.6-10v10h3.1v3.8H136v-3.8h3.3v-19.5H136v-3.8h11.3v3.8h-3.5v8.5l7.9-8.5H149v-3.8h11v3.8h-3l-8,9l8.2,10.5h3v3.8
		H160.3z M184.6,120.1h-3.8v-4.7H170v7.4h9.9v3.8H170v8.2h10.8V130h3.8v8.7H162v-3.8h3.5v-19.5H162v-3.8h22.6V120.1z M200.3,115.4
		v19.5h3.5v3.8h-11.5v-3.8h3.5v-19.5h-5v6.8H187v-10.6h22.1v10.6h-3.8v-6.8C205.3,115.4,200.3,115.4,200.3,115.4z M207.5,153.5
		c-0.2-0.5-0.9-0.5-1-1.2c0-0.1,0.1-1.8,0.2-2.1c0.2-0.4,1.9-0.5,1-1.6C209.7,148.1,210,153.2,207.5,153.5z M202.6,102.6
		c-2.3,0-4.5-0.8-6.3-2.3v1.9h-3.8V92h3.8v2.5c1.7,2.9,3.6,4.2,6,4.2c2.5,0,4.5-1.8,4.5-4.2c0-2.8-2.5-3.4-5.6-4.2
		c-2.4-0.6-5-1.3-6.9-3.2c-0.8-0.8-1.8-2.4-1.8-5c0-5.2,4-7.6,8-7.6c2,0,4,0.6,5.7,1.8v-1.5h3.8v8.6h-3.8v-2c-1.4-2-3.1-2.9-5.4-2.9
		c-2.6,0-4.2,1.2-4.2,3.2c0,0.8,0.3,1.6,0.8,2.1c0.9,0.9,2.7,1.3,4.6,1.8c2.4,0.6,5.2,1.3,7,3c1.5,1.5,2.3,3.7,2.3,5.9
		C211.3,99.1,207.6,102.6,202.6,102.6z M221.5,139.1c-2.3,0-4.5-0.8-6.3-2.3v1.9h-3.8v-10.2h3.8v2.5c1.7,2.9,3.6,4.2,6,4.2
		c2.5,0,4.5-1.8,4.5-4.2c0-2.8-2.5-3.4-5.6-4.2c-2.4-0.6-5-1.3-6.9-3.2c-0.8-0.8-1.8-2.4-1.8-5c0-5.2,4-7.6,8-7.6c2,0,4,0.6,5.7,1.8
		v-1.5h3.8v8.6h-3.8v-2c-1.4-2-3.1-2.9-5.4-2.9c-2.6,0-4.2,1.2-4.2,3.2c0,0.8,0.3,1.6,0.8,2.1c0.9,0.9,2.7,1.3,4.6,1.8
		c2.4,0.6,5.2,1.3,7,3c1.5,1.5,2.3,3.7,2.3,5.9C230.2,135.6,226.5,139.1,221.5,139.1z M272,160.1c-0.4-0.5-0.7-1.1-0.7-2
		c0.6-0.5,1.5-0.7,2.7-0.7C274.2,159.1,273.8,160.3,272,160.1z M277,142.8c-3-0.3-1.8-4-2.3-4.3c1.7,0.9,1.8,0.3,3.2,0
		c0.4-0.1,0.4-0.6,1.3-0.6c0.5,0,1,0.5,1.6,0.4C278.8,138.7,280.2,143.1,277,142.8z M279.3,122.2c-8.4,0.9-13.3-1-18.7-4.2
		c1.8-2,5.8-1.6,5.7-5.7c-2.6,0.8-3.5,3.6-6.3,4.1c-1.8-1.9-3.1-4.4-4.1-7.1c1.9,0.2,0.9,3,2.8,3.2c1.2,0,1.9-1.1,3.2-2.1
		c-0.2,0.1,3.2-1.9,3.2-2.1c0-3.3-8.7-5.5-9.9,0.1c-1.5-1.8-7.1-8-1.7-9.2c-1.7,1.7-1.1,5.8,1.1,6.1c3.1,0.5,4-1.3,5.5-2.7
		c-0.4-2.9-1.7-5.1-4.2-6.3c-2.7,0.7-5.7,1-6.3,4.2c-1.9-0.2-0.9-3-2.8-3.2c0.2-1.5,2.7,1.3,3.8-0.5c-0.5-0.7-3.7-0.3-5.2-1.8
		c-1-3.6,0.5-4.9,2-7.5c-2,3.1,2.3,9.4,6.5,5c-1.2-3.7-3.7-5.1-4.9-7.1c-2.5,0.9-4.8,2.1-5.6,5c-2.3-0.1-0.5-3.8-2.8-4
		c0-1.6,2.7-0.2,3.8-0.5c-3.5-0.9-6.1-2.7-4.8-7.9c1.2,0.8,0.6,3.3,1.2,4.6c5.4-0.7,4.9-3.8,3.5-7.4c-3.7-0.2-5.6,1.7-6.4,4.9
		c-1.8-0.4-1.5-2.4-2.8-3.2c1.4-1.4,5.3,0,5.5-2.7c-0.4-1.2-3.1,1.8-6.1,0.4c-1.8-2.9-2.7-6.7-4.7-9.4c1.6-0.6,4.5,0.3,5.5-2.7
		c-1.3-2.1-5.2,4.1-6.8-0.4c1.7-1.3,3.8-2.2,6.2-2.6c1.3,2,2,4.4,4.2,5.6c-2.7,1-7,0.2-6.4,4.9c1.6,0.5,1.5-1,1.7-2.2
		c1.1,1.1,0.6,3.8,2,4.7c1.8-0.1,3.3-0.6,3.9-2c0.8-2.8-3.6-1.1-2.8-4c5.9,2.2,6.5,9.1,10.6,12.8c-0.5-3.5-3.1-6.9-5.4-10.2
		c-0.8-1.1-2.1-2.2-2.8-3.2c-1.2-1.6-1.5-3.3-2.7-4.7c-1.4-1.7-3-2-4.3-3.3c-0.9-0.9,1.5-0.5,0.1-0.8c0.4,0.1-4.2-3.4-5-4.1
		c-2.4-2.1-3.4-6.6-7.2-5.8c5.5,11.6,10.5,25.9,18.7,40.6c0.1,0.9,1.3,0.7,2.2,0.9c-0.9,1.7,0.3,4,1.3,3.9c1,1,1.5,3,0.5,3.8
		c3.5,0.5,0.9,0.3,2.8,3.2c1.5,2.3,1.1,2.6,2.7,4.7c1.7,2.1,1.5,3.1,2.7,4.7c7.7,10.3,18,16,14.9,29c-2.3-0.1-1.7-2.8-2-4.7
		c-9.6-6-15.9-11.7-22.2-21.1c-4.4-6.6-8.8-15.5-12.9-24.3c-3.4-7.2-7.5-14-10.1-19.6c-1.1-2.4-0.1-4.6-2.7-5.5
		c-0.2-1.3,0.7-1.4,1.6-1.4c-2.5-1.2-4.1-6.8-2.5-9.3c-2.5-1.3-1.8-10.5-3.6-14.6c2.1,0.6,2.3,2.8,4.3,3.3c2-2.9-3.2-4.6-2.5-8.5
		c3.5,1.2,4.6,4.5,6.4,7.2c11.6,3.6,17.1,13,24.3,22.7C251,70.9,255.9,79.4,261,89c2.1,3.8,4.2,7.3,6.9,10.3
		c6.1,6.8,11.9,17.8,15,26.7C281.8,124.7,279,124.8,279.3,122.2z M227.3,57.5c-1.8-1.5-1.6-4.8-3.4-6.3c1.3-0.9,3.4,3.6,5.8,4.2
		C229.5,56.8,227.2,55.8,227.3,57.5z M284.8,112c-1.4,0.3-1.8-0.5-2.7-0.7c0.4-0.5,0.7-1.1,0.7-2c1.4-0.3,1.8,0.5,2.7,0.7
		C285.2,110.5,284.8,111.1,284.8,112z M285.5,93c-1.2,0.1-1.4-0.8-2.7-0.7c-0.1-1.2,0.8-1.4,0.7-2.7c1.2-0.1,1.4,0.8,2.7,0.7
		C286.3,91.6,285.4,91.8,285.5,93z"/>
	<path class="st1" d="M268.9,118.5c2.4-0.2,2.6,1.5,5.2,1.1c-0.7-2.9-3.2-1.3,0.2-3c-1.1-0.2-2.8,0.1-3-0.9c0.4,0,0.9-0.6,0-0.8
		c0,1.6-2.7,0.2-3.8,0.5c-1,3.5,2.6-1.1,2.9,1.7c-2.3-0.2-2.3,2.2-5.4,1.2c1.2,3.1,8.1,3.8,9.7,2.9
		C276.1,120.4,268.7,120,268.9,118.5z"/>
	<path class="st1" d="M123.8,115.4h-4.6v7h4.3c2.9,0,4.3-1.2,4.3-3.6C127.8,116.6,126.3,115.4,123.8,115.4z"/>
	<path class="st1" d="M250.1,80.2c-1-0.1-1-1-2.2-0.9c7,17.1,21.6,27.5,31.5,42.2C271.5,106,257.1,96.4,250.1,80.2z"/>
	<path class="st1" d="M270.8,113.3c-1.4,0-2.6,0.3-3.1,1.3C269,114.6,271.4,115.6,270.8,113.3z"/>
</g>
</svg>
